<svg data-v-56bd7dfc="" xmlns="http://www.w3.org/2000/svg" width="36" height="36"
    viewBox="0 0 36 36" fill="none">
    <!-- White background with rounded corners -->
    <rect width="36" height="36" rx="8" ry="8" fill="black" />

    <!-- Clock icon centered in new viewBox -->
    <g transform="translate(4,4) scale(1.2)">
        <path
            d="M20 13c0 5-3.5 7.5-7.66 8.95a1 1 0 0 1-.67-.01C7.5 20.5 4 18 4 13V6a1 1 0 0 1 1-1c2 0 4.5-1.2 6.24-2.72a1.17 1.17 0 0 1 1.52 0C14.51 3.81 17 5 19 5a1 1 0 0 1 1 1z"
            stroke="#1c882d"
            stroke-width="3" fill="none" />
    </g>
</svg>